<?xml version="1.0" encoding="UTF-8" standalone="no"?>
<svg width="1440px" height="1024px" viewBox="0 0 1440 1024" version="1.1" xmlns="http://www.w3.org/2000/svg" xmlns:xlink="http://www.w3.org/1999/xlink">
    <!-- Generator: Sketch 3.7 (28169) - http://www.bohemiancoding.com/sketch -->
    <title>Group 2</title>
    <desc>Created with Sketch.</desc>
    <defs>
        <rect id="path-1" x="214" y="354" width="24" height="12" rx="3"></rect>
        <mask id="mask-2" maskContentUnits="userSpaceOnUse" maskUnits="objectBoundingBox" x="0" y="0" width="24" height="12" fill="white">
            <use xlink:href="#path-1"></use>
        </mask>
        <rect id="path-3" x="93" y="859" width="24.6666667" height="12" rx="3"></rect>
        <mask id="mask-4" maskContentUnits="userSpaceOnUse" maskUnits="objectBoundingBox" x="0" y="0" width="24.6666667" height="12" fill="white">
            <use xlink:href="#path-3"></use>
        </mask>
        <rect id="path-5" x="214" y="354" width="24" height="12" rx="3"></rect>
        <mask id="mask-6" maskContentUnits="userSpaceOnUse" maskUnits="objectBoundingBox" x="0" y="0" width="24" height="12" fill="white">
            <use xlink:href="#path-5"></use>
        </mask>
        <rect id="path-7" x="93" y="859" width="24.6666667" height="12" rx="3"></rect>
        <mask id="mask-8" maskContentUnits="userSpaceOnUse" maskUnits="objectBoundingBox" x="0" y="0" width="24.6666667" height="12" fill="white">
            <use xlink:href="#path-7"></use>
        </mask>
    </defs>
    <g id="Page-1" stroke="none" stroke-width="1" fill="none" fill-rule="evenodd">
        <g id="Background-Images">
            <g id="Group-2">
                <rect id="Rectangle-60" fill="#FFFFFF" x="0" y="0" width="1440" height="1024"></rect>
                <g id="Group" transform="translate(165.000000, 77.000000)" stroke="#F1F1F1">
                    <path d="M490,809 L500.5,819.5" id="Line" stroke-width="2" stroke-linecap="round" transform="translate(495.500000, 814.500000) scale(-1, 1) translate(-495.500000, -814.500000) "></path>
                    <polygon id="Triangle-1" stroke-width="2" stroke-linecap="round" stroke-linejoin="round" points="15.5 442 24 460 7 460"></polygon>
                    <polygon id="Triangle-1" stroke-width="2" stroke-linecap="round" stroke-linejoin="round" points="396.5 329.518519 402 347.037037 391 347.037037"></polygon>
                    <path d="M7.5,21.5 L16,32" id="Line" stroke-width="2" stroke-linecap="round"></path>
                    <path d="M29,704 L20,715" id="Line" stroke-width="2" stroke-linecap="round"></path>
                    <polygon id="Path-145" stroke-width="2" stroke-linecap="round" stroke-linejoin="round" points="254.777778 74 249 84.2222222 256.555556 93.3333333 261 84.4444444"></polygon>
                    <polygon id="Path-145" stroke-width="2" stroke-linecap="round" stroke-linejoin="round" transform="translate(185.500000, 670.694444) scale(-1, -1) translate(-185.500000, -670.694444) " points="185.185185 657 177 671.481481 187.703704 684.388889 194 671.796296"></polygon>
                    <circle id="Oval-151" stroke-width="2" cx="384" cy="461" r="7"></circle>
                    <circle id="Oval-151" stroke-width="2" cx="425" cy="4" r="4"></circle>
                    <path d="M0,282 C0,282 0.466666667,289 7,289 C13.5333333,289 13.5333333,282 13.5333333,282" id="Path-147" stroke-width="2" stroke-linecap="round"></path>
                    <path d="M442,617 C442,617 442.521839,624.827586 449.827586,624.827586 C457.133333,624.827586 457.133333,617 457.133333,617" id="Path-147" stroke-width="2" stroke-linecap="round" transform="translate(449.566667, 620.913793) scale(1, -1) translate(-449.566667, -620.913793) "></path>
                    <use id="Rectangle-56" mask="url(#mask-2)" stroke-width="4" stroke-linecap="round" stroke-linejoin="round" xlink:href="#path-1"></use>
                    <use id="Rectangle-56" mask="url(#mask-4)" stroke-width="4" stroke-linecap="round" stroke-linejoin="round" xlink:href="#path-3"></use>
                </g>
                <g id="Group" transform="translate(774.000000, 77.000000)" stroke="#F1F1F1">
                    <path d="M490,809 L500.5,819.5" id="Line" stroke-width="2" stroke-linecap="round" transform="translate(495.500000, 814.500000) scale(-1, 1) translate(-495.500000, -814.500000) "></path>
                    <polygon id="Triangle-1" stroke-width="2" stroke-linecap="round" stroke-linejoin="round" points="15.5 442 24 460 7 460"></polygon>
                    <polygon id="Triangle-1" stroke-width="2" stroke-linecap="round" stroke-linejoin="round" points="396.5 299.518519 402 317.037037 391 317.037037"></polygon>
                    <path d="M7.5,21.5 L16,32" id="Line" stroke-width="2" stroke-linecap="round"></path>
                    <path d="M29,704 L20,715" id="Line" stroke-width="2" stroke-linecap="round"></path>
                    <polygon id="Path-145" stroke-width="2" stroke-linecap="round" stroke-linejoin="round" points="254.777778 74 249 84.2222222 256.555556 93.3333333 261 84.4444444"></polygon>
                    <polygon id="Path-145" stroke-width="2" stroke-linecap="round" stroke-linejoin="round" transform="translate(185.500000, 670.694444) scale(-1, -1) translate(-185.500000, -670.694444) " points="185.185185 657 177 671.481481 187.703704 684.388889 194 671.796296"></polygon>
                    <circle id="Oval-151" stroke-width="2" cx="384" cy="461" r="7"></circle>
                    <circle id="Oval-151" stroke-width="2" cx="425" cy="4" r="4"></circle>
                    <path d="M0,282 C0,282 0.466666667,289 7,289 C13.5333333,289 13.5333333,282 13.5333333,282" id="Path-147" stroke-width="2" stroke-linecap="round"></path>
                    <path d="M442,617 C442,617 442.521839,624.827586 449.827586,624.827586 C457.133333,624.827586 457.133333,617 457.133333,617" id="Path-147" stroke-width="2" stroke-linecap="round" transform="translate(449.566667, 620.913793) scale(1, -1) translate(-449.566667, -620.913793) "></path>
                    <use id="Rectangle-56" mask="url(#mask-6)" stroke-width="4" stroke-linecap="round" stroke-linejoin="round" xlink:href="#path-5"></use>
                    <use id="Rectangle-56" mask="url(#mask-8)" stroke-width="4" stroke-linecap="round" stroke-linejoin="round" xlink:href="#path-7"></use>
                </g>
            </g>
        </g>
    </g>
</svg>