<?xml version="1.0" encoding="UTF-8" standalone="no"?>
<svg width="250px" height="250px" viewBox="0 0 250 250" version="1.1" xmlns="http://www.w3.org/2000/svg" xmlns:xlink="http://www.w3.org/1999/xlink">
    <!-- Generator: Sketch 3.7 (28169) - http://www.bohemiancoding.com/sketch -->
    <title>Group 4</title>
    <desc>Created with Sketch.</desc>
    <defs></defs>
    <g id="Page-1" stroke="none" stroke-width="1" fill="none" fill-rule="evenodd">
        <g id="AboutMe" transform="translate(-595.000000, -67.000000)">
            <g id="Group-4" transform="translate(595.000000, 67.000000)">
                <circle id="Oval-79" fill="#161743" cx="125" cy="125" r="125"></circle>
                <g id="Group-2" transform="translate(22.000000, 21.000000)">
                    <ellipse id="Oval-8" stroke="#48BDFF" stroke-width="2" fill="#48BDFF" cx="73.1387255" cy="203.132353" rx="3.13872549" ry="3.13235294"></ellipse>
                    <ellipse id="Oval-8" stroke="#48BDFF" stroke-width="2" fill="#48BDFF" cx="13.8832353" cy="55.8794118" rx="1.88323529" ry="1.87941176"></ellipse>
                    <ellipse id="Oval-8" stroke="#48BDFF" stroke-width="2" fill="#48BDFF" cx="128.138725" cy="3.13235294" rx="3.13872549" ry="3.13235294"></ellipse>
                    <path d="M202.990333,132.011168 C204.015601,132.011168 204.846745,131.181711 204.846745,130.158525 C204.846745,129.135339 204.015601,128.305882 202.990333,128.305882 C201.965065,128.305882 201.133922,129.135339 201.133922,130.158525 C201.133922,131.181711 201.965065,132.011168 202.990333,132.011168 Z" id="Oval-8" stroke="#48BDFF" stroke-width="2" fill="#48BDFF"></path>
                    <path d="M202.541574,79.1535952 L202.541574,79.113566 C200.847737,78.9398369 199.484183,77.6540764 199.196138,76 L199.083773,76 C198.810719,77.5679951 197.571185,78.8050125 196,79.0775119 L196,79.1896493 C197.657442,79.4771087 198.945818,80.837895 199.1199,82.5282929 L199.160011,82.5282929 C199.343153,80.7499235 200.759587,79.3363655 202.541574,79.1535952 Z" id="Combined-Shape" stroke="#EE3B3D" stroke-linecap="round" stroke-linejoin="round" fill="#EE3B3D"></path>
                    <path d="M11.9088235,126.406133 L11.9088235,126.334824 C8.89137771,126.025338 6.46230521,123.734851 5.94917568,120.788235 L5.74900471,120.788235 C5.26257943,123.581503 3.05444081,125.785159 0.255490196,126.270596 L0.255490196,126.470361 C3.20810032,126.982449 5.50324785,129.406589 5.81336313,132.417909 L5.88481726,132.417909 C6.21107153,129.249875 8.73434403,126.731725 11.9088235,126.406133 Z" id="Combined-Shape" stroke="#EBF3FE" stroke-linecap="round" stroke-linejoin="round" fill="#EBF3FE"></path>
                    <path d="M32.7884314,166.236771 L32.7884314,166.182993 C30.5128065,165.949593 28.6809068,164.222208 28.2939271,162 L28.142967,162 C27.7761264,164.10656 26.1108454,165.76846 24,166.134556 L24,166.285209 C26.2267287,166.671403 27.957628,168.499584 28.1915033,170.770588 L28.2453908,170.770588 C28.4914375,168.381396 30.3943786,166.482319 32.7884314,166.236771 Z" id="Combined-Shape" stroke="#EBF3FE" stroke-linecap="round" stroke-linejoin="round" fill="#EBF3FE"></path>
                    <path d="M51.25,19.4206229 L51.25,19.3774682 C49.4239051,19.190174 47.9538813,17.8040188 47.6433461,16.020789 L47.5222068,16.020789 C47.2278325,17.7112161 45.8915133,19.0448222 44.1976471,19.3385989 L44.1976471,19.4594922 C45.9845048,19.769397 47.3734799,21.2364361 47.5611552,23.0588235 L47.6043977,23.0588235 C47.80184,21.1415956 49.3288716,19.6176643 51.25,19.4206229 Z" id="Combined-Shape" stroke="#EE3B3D" stroke-linecap="round" stroke-linejoin="round" fill="#EE3B3D"></path>
                    <path d="M173.554902,188.052531 L173.554902,187.975705 C170.304009,187.642275 167.68701,185.174582 167.134182,182 L166.918524,182 C166.394466,185.009371 164.015493,187.383514 161,187.906508 L161,188.121727 C164.181041,188.673433 166.653754,191.285119 166.987862,194.529412 L167.064844,194.529412 C167.416339,191.11628 170.134827,188.403312 173.554902,188.052531 Z" id="Combined-Shape" stroke="#EE3B3D" stroke-linecap="round" stroke-linejoin="round" fill="#EE3B3D"></path>
                    <path d="M183.557059,35.4184951 L183.557059,35.3570343 C180.956345,35.0902909 178.862745,33.1161366 178.420483,30.5764706 L178.247957,30.5764706 C177.82871,32.9839675 175.925532,34.8832818 173.513137,35.3016769 L173.513137,35.4738525 C176.05797,35.9152171 178.036141,38.0045661 178.303427,40.6 L178.365012,40.6 C178.646209,37.8694947 180.820998,35.6991203 183.557059,35.4184951 Z" id="Combined-Shape" stroke="#EBF3FE" stroke-linecap="round" stroke-linejoin="round" fill="#EBF3FE"></path>
                </g>
                <g id="Group" transform="translate(45.000000, 45.000000)">
                    <path d="M79.5209248,158.789479 C123.235778,158.789479 158.673668,123.327026 158.673668,79.5818747 C158.673668,35.8367229 123.235778,0.374270684 79.5209248,0.374270684 C39.7880344,0.374270684 6.892895,29.6704537 1.2297691,67.8544217 C0.662220284,71.6811538 0.368181818,75.5971523 0.368181818,79.5818747 C0.368181818,123.327026 35.8060719,158.789479 79.5209248,158.789479 Z" id="Oval-5" stroke="#32333D" stroke-width="5" fill="#FFFFFF"></path>
                    <path d="M55.2021353,141.178768 C65.7834304,148.134949 80.819596,154.322531 98.537177,154.322531 C124.011474,154.322531 143.350626,139.971931 152.383495,130.616596 C155.77915,127.099719 158.073825,123.330533 159.381214,121.491958 C159.75497,120.966348 160.701278,120.476183 157.431443,122.85413 C154.161607,125.232077 131.621047,141.622037 100.552581,141.622037 C65.5019334,141.622037 35.7650643,122.241652 38.0036737,125.165098 C38.9758427,126.569527 44.8504797,134.373553 55.2021353,141.178768 Z" id="Oval-35" fill="#D4E2F3" transform="translate(98.842684, 137.690418) rotate(-17.000000) translate(-98.842684, -137.690418) "></path>
                    <path d="M58.2162978,74.8465034 C58.2162978,74.8465034 64.5704103,63.6917832 71.8828411,74.8465035" id="Path-7" stroke="#32333D" stroke-width="4" stroke-linecap="round" transform="translate(65.049569, 72.367677) rotate(-6.000000) translate(-65.049569, -72.367677) "></path>
                    <path d="M110.984793,67.7106832 C110.984793,67.7106832 117.338906,56.555963 124.651336,67.7106833" id="Path-7" stroke="#32333D" stroke-width="4" stroke-linecap="round" transform="translate(117.818065, 65.231857) rotate(-6.000000) translate(-117.818065, -65.231857) "></path>
                    <path d="M76.5635714,101.948169 L118.697129,101.948169 C118.697129,101.948169 118.697129,126.272839 97.6303504,126.272838 C76.5635721,126.272837 76.5635714,101.948169 76.5635714,101.948169 Z" id="Path-9" stroke="#32333D" stroke-width="4" stroke-linejoin="round" transform="translate(97.630350, 114.110504) rotate(-7.000000) translate(-97.630350, -114.110504) "></path>
                    <path d="M32.2636824,59.2722639 L32.2636824,52.4326873 L45.3171569,50.7310747 C45.3171569,50.7310747 49.9920268,50.0285028 56.5719428,49.9274315 C60.8003796,49.8624803 66.0733828,50.2237582 70.5442979,50.5907085 C77.656774,51.1744651 85.081495,53.0242588 86.9630153,53.3778195 C88.8445356,53.7313803 89.2466932,54.1328024 91.4337637,54.1328024 C93.6208343,54.1328023 95.7941925,53.5694661 95.7941925,53.5694661 C95.7941925,53.5694661 107.262468,50.9630604 115.771674,50.3419797 C120.860482,49.9705513 121.707766,49.9710614 123.781651,49.9274315 C125.175594,49.8981061 127.157262,49.6927117 131.227383,49.9274315 C141.35296,50.5113634 150.636253,52.3525849 150.636253,52.3525849 L150.636253,59.2722639 L147.581057,59.3143736 C147.581057,59.3143736 147.565199,60.7912122 146.911548,68.293318 C146.257898,75.7954238 142.229811,80.118138 137.870532,82.6084222 C133.511253,85.0987065 125.803049,86.9747477 114.604342,83.8840702 C103.405636,80.7933927 98.8974236,69.6586134 98.8974236,69.6586134 C98.8974236,69.6586134 97.3122331,65.5804807 96.7307698,64.4141574 C96.1493064,63.2478342 94.8642804,59.995805 91.3160888,59.9958047 C87.7678972,59.9958044 86.7355583,61.7985328 85.665827,64.414158 C84.5960958,67.0297832 85.234197,65.2947216 83.6258122,69.6586131 C82.0174274,74.0225046 77.1609113,80.3488736 69.5629027,83.2619693 C58.3366159,87.566156 46.3806031,84.5013071 42.6480221,81.2703926 C38.9154411,78.0394781 37.1968592,74.2770353 36.079172,67.74851 C35.8129083,66.1932366 35.3961026,59.4036465 35.3961026,59.4036465 L32.2636824,59.2722639 Z M40.5991056,64.9709436 C40.5991056,64.9709436 40.718138,61.9281216 40.8875484,60.6624505 C41.0569588,59.3967793 41.2267856,59.1850424 41.7466714,58.1760974 C42.2665572,57.1671524 42.3888181,57.0238647 43.1578578,56.2564494 C43.9268975,55.4890341 43.9508004,55.4720414 45.0353793,54.8943359 C46.1199581,54.3166304 46.1589518,54.2757499 47.4518637,53.9692291 C48.7447755,53.6627083 51.9379241,53.5141688 55.148116,53.4240469 C58.3583078,53.3339249 58.0634068,53.2601014 61.5752198,53.352928 C65.0870328,53.4457546 66.4283744,53.5427043 68.5867938,53.7792669 C70.7452132,54.0158295 74.0876956,54.8302663 75.4848294,55.4750776 C76.8819632,56.119889 77.1722991,56.29352 78.0603595,57.0039461 C78.5383039,57.3862896 79.6484536,58.5248988 80.2945835,59.8530052 C80.6114544,60.5043267 81.0742333,61.8169301 81.1447429,63.2332102 C81.197605,64.2950154 80.9330408,65.4585571 80.7535652,66.2067278 C80.3346974,67.9528398 78.4646303,71.4026717 77.2600743,72.9248408 C76.6861234,73.6501291 75.2420337,75.4019726 73.6036292,76.8131719 C71.8034997,78.363669 70.5075243,79.1571001 68.3103029,80.0692931 C66.1130815,80.9814862 60.8029814,81.5677084 59.5363542,81.6445756 C58.2697269,81.7214427 54.3547254,81.8815142 51.4041046,81.0234089 C48.4534839,80.1653036 48.0039272,79.7627334 46.5865352,78.8368775 C45.1691432,77.9110216 43.9590038,76.535837 43.1233826,75.207195 C42.2877613,73.878553 41.7710339,72.4474086 41.7710339,72.4474086 C41.7710339,72.4474086 41.3263079,71.3663612 41.1166938,70.2097844 C40.9070798,69.0532075 40.5991056,64.9709436 40.5991056,64.9709436 Z M142.243669,64.6159849 C142.243669,64.6159849 142.07155,61.5757037 141.880077,60.3131819 C141.688603,59.0506602 141.515107,58.8419194 140.977692,57.8422013 C140.440277,56.8424832 140.315534,56.7013511 139.533218,55.9474743 C138.750902,55.1935974 138.726706,55.1770245 137.63221,54.6183355 C136.537714,54.0596465 136.498013,54.0194528 135.199949,53.7355431 C133.901884,53.4516334 130.70663,53.3588446 127.495354,53.324762 C124.284078,53.2906793 124.577646,53.2117203 121.067988,53.3658224 C117.558329,53.5199244 116.218884,53.640269 114.064922,53.9144652 C111.91096,54.1886613 108.583201,55.0613084 107.197533,55.7304049 C105.811866,56.3995014 105.524604,56.5781731 104.649078,57.3039898 C104.177879,57.6946163 103.08777,58.8524269 102.464917,60.1916076 C102.159461,60.84836 101.719661,62.1688401 101.67388,63.586135 C101.639557,64.648701 101.924387,65.8074483 102.116893,66.5523728 C102.566171,68.2909086 104.496161,71.7075778 105.727099,73.2084927 C106.31362,73.9236537 107.788064,75.6500276 109.450848,77.0324178 C111.277763,78.5512622 112.587388,79.3219545 114.800195,80.1956619 C117.013002,81.0693692 122.332524,81.5628281 123.6003,81.6175779 C124.868076,81.6723276 128.785275,81.7640485 131.72047,80.8545785 C134.655665,79.9451084 135.098128,79.5347537 136.499146,78.5843019 C137.900163,77.6338501 139.086118,76.2377551 139.898424,74.8947319 C140.71073,73.5517086 141.202402,72.111764 141.202402,72.111764 C141.202402,72.111764 141.628193,71.0231198 141.81759,69.8630608 C142.006987,68.7030018 142.243669,64.6159849 142.243669,64.6159849 Z M33.6841127,55.4723271 L37.9661542,55.3975838 L37.9906135,56.7988545 L33.7085719,56.8735978 L33.6841127,55.4723271 Z M144.644213,55.099698 L148.92274,55.099698 L148.92274,56.526862 L144.644213,56.526862 L144.644213,55.099698 Z" id="Frame" fill="#353841" transform="translate(91.449968, 67.655834) rotate(-7.000000) translate(-91.449968, -67.655834) "></path>
                    <polygon id="Path-20" fill="#353841" points="151.54279 46.7571019 153.682053 51.752176 147.977351 51.038594 147.977351 46.7571019"></polygon>
                    <path d="M33.8833072,65.3102343 C33.8833072,65.3102343 18.6159414,69.2019516 12.408434,70.7910192 C8.3950166,71.818419 1.08126959,73.8732186 1.08126959,73.8732186" id="Path-15" stroke="#353841" stroke-linecap="round"></path>
                    <path d="M31.7440439,60.3151602 C31.7440439,60.3151602 19.9266116,63.6360206 13.6613598,65.2250882 C9.61060814,66.252488 1.79435737,68.1645624 1.79435737,68.1645624" id="Path-15" stroke="#353841" stroke-linecap="round"></path>
                    <rect id="Rectangle-23" fill="#353841" transform="translate(17.524473, 66.906707) rotate(-14.000000) translate(-17.524473, -66.906707) " x="2.82379453" y="64.0523794" width="29.4013563" height="5.70865615"></rect>
                    <polygon id="Path-17" fill="#353841" points="1.08126959 68.1645624 0.368181818 73.8732186 5.35979624 72.4460545 3.93362069 68.1645624"></polygon>
                    <path d="M148.405186,46.0435198 L150.829702,46.7571019" id="Path-18" stroke="#353841" stroke-linecap="round"></path>
                    <path d="M145.125,51.038594 L152.968966,51.752176" id="Path-19" stroke="#353841" stroke-linecap="round"></path>
                    <path d="M103.052821,16.0730751 C103.052821,16.0730751 105.905172,16.0730751 110.183699,18.2138211" id="Path-22" stroke="#D4E2F3" stroke-width="4" stroke-linecap="round"></path>
                    <path d="M115.888401,21.7817312 C115.888401,21.7817312 121.593103,23.9224773 125.158542,29.6311334" id="Path-22" stroke="#D4E2F3" stroke-width="4" stroke-linecap="round"></path>
                </g>
            </g>
        </g>
    </g>
</svg>