<?xml version="1.0" encoding="UTF-8" standalone="no"?>
<svg width="25px" height="25px" viewBox="0 0 25 25" version="1.1" xmlns="http://www.w3.org/2000/svg" xmlns:xlink="http://www.w3.org/1999/xlink">
    <!-- Generator: Sketch 3.7 (28169) - http://www.bohemiancoding.com/sketch -->
    <title>github</title>
    <desc>Created with Sketch.</desc>
    <defs></defs>
    <g id="Page-1" stroke="none" stroke-width="1" fill="none" fill-rule="evenodd">
        <g id="Footer" transform="translate(-673.000000, -971.000000)" fill="#333333">
            <g id="github" transform="translate(673.000000, 971.000000)">
                <path d="M0.148221344,12.8133583 C0.148221344,18.4080989 3.6870501,23.1553872 8.59530776,24.8300775 C9.21329479,24.9466994 9.43849987,24.5556273 9.43849987,24.2197563 C9.43849987,23.9188718 9.42788414,23.1227331 9.42181801,22.0661388 C5.98611348,22.8311784 5.26121091,20.3681241 5.26121091,20.3681241 C4.69933559,18.9049082 3.8895072,18.5153911 3.8895072,18.5153911 C2.76803136,17.7293596 3.97443302,17.7456866 3.97443302,17.7456866 C5.2141984,17.8350967 5.8663074,19.0510743 5.8663074,19.0510743 C6.96882658,20.9862201 8.75757675,20.4272125 9.46124786,20.1030037 C9.57347127,19.2843181 9.89270138,18.7268654 10.2452952,18.4096539 C7.50264605,18.0901099 4.61895936,17.0039714 4.61895936,12.150946 C4.61895936,10.7678104 5.10045845,9.63735555 5.89057192,8.75180669 C5.76394145,8.43148524 5.3400706,7.14397961 6.01189453,5.40087114 C6.01189453,5.40087114 7.04920281,5.05955775 9.40816922,6.698484 C10.3939154,6.41781399 11.4501803,6.27709025 12.5003791,6.27242537 C13.5498197,6.27709025 14.6060846,6.41781399 15.5933473,6.698484 C17.9507972,5.05955775 18.9865889,5.40087114 18.9865889,5.40087114 C19.6599294,7.14397961 19.2360585,8.43148524 19.1094281,8.75180669 C19.9010581,9.63735555 20.3787658,10.7678104 20.3787658,12.150946 C20.3787658,17.0156336 17.4912878,18.0862225 14.7395395,18.4003241 C15.1831253,18.7913962 15.5774237,19.5642106 15.5774237,20.7452016 C15.5774237,22.4385514 15.5630167,23.8045824 15.5630167,24.2197563 C15.5630167,24.5587373 15.7851887,24.9521418 16.4122749,24.8285226 C21.315983,23.1507223 24.8517787,18.4073215 24.8517787,12.8133583 C24.8517787,5.81837749 19.3209844,0.148221344 12.4988626,0.148221344 C5.67901563,0.148221344 0.148221344,5.81837749 0.148221344,12.8133583 Z" id="Shape"></path>
            </g>
        </g>
    </g>
</svg>